<?xml version="1.0" encoding="UTF-8"?>
<svg width="26px" height="26px" viewBox="0 0 26 26" version="1.1" xmlns="http://www.w3.org/2000/svg" xmlns:xlink="http://www.w3.org/1999/xlink">
    <!-- Generator: Sketch 52.2 (67145) - http://www.bohemiancoding.com/sketch -->
    <title>instagram</title>
    <desc>Created with Sketch.</desc>
    <g id="Page-1" stroke="none" stroke-width="1" fill="none" fill-rule="evenodd" stroke-linecap="round" stroke-linejoin="round">
        <g id="instagram" stroke="#FFFFFF">
            <path d="M25.5,19.5 C25.5,22.813 22.813,25.5 19.5,25.5 L6.5,25.5 C3.187,25.5 0.5,22.813 0.5,19.5 L0.5,6.5 C0.5,3.187 3.187,0.5 6.5,0.5 L19.5,0.5 C22.813,0.5 25.5,3.187 25.5,6.5 L25.5,19.5 Z" id="Stroke-38"></path>
            <path d="M19.478,13 C19.478,16.59 16.568,19.5 12.978,19.5 C9.388,19.5 6.478,16.59 6.478,13 C6.478,9.41 9.388,6.5 12.978,6.5 C16.568,6.5 19.478,9.41 19.478,13 Z" id="Stroke-40"></path>
            <path d="M20.5,4 C20.5,4.276 20.276,4.5 20,4.5 C19.724,4.5 19.5,4.276 19.5,4 C19.5,3.724 19.724,3.5 20,3.5 C20.276,3.5 20.5,3.724 20.5,4 Z" id="Stroke-42"></path>
        </g>
    </g>
</svg>